<svg width="14" height="14" viewBox="0 0 14 14" fill="none" xmlns="http://www.w3.org/2000/svg">
<path fill-rule="evenodd" clip-rule="evenodd" d="M13.875 5.60301H7.148C7.148 6.30201 7.148 7.70199 7.144 8.40099H11.042C10.892 9.10099 10.363 10.08 9.614 10.573C9.614 10.573 9.61299 10.578 9.61199 10.577C8.61699 11.234 7.304 11.383 6.329 11.187C4.801 10.883 3.59099 9.77497 3.09999 8.36797C3.10299 8.36497 3.10498 8.34598 3.10698 8.34398C2.79998 7.47098 2.79998 6.30201 3.10698 5.60301C3.50298 4.31701 4.74898 3.14401 6.27898 2.82201C7.50998 2.56201 8.898 2.84397 9.92 3.79997C10.055 3.66697 11.799 1.96397 11.93 1.82597C8.44098 -1.33503 2.85399 -0.223042 0.762989 3.85796H0.761982C0.761982 3.85796 0.762991 3.85801 0.758991 3.86601C-0.275009 5.87001 -0.23302 8.232 0.76598 10.14C0.76298 10.142 0.760991 10.144 0.758991 10.146C1.66399 11.902 3.31 13.249 5.295 13.762C7.402 14.314 10.085 13.936 11.882 12.311C11.882 12.312 11.883 12.313 11.884 12.313C13.406 10.942 14.354 8.60601 13.875 5.60301Z" fill="#222222"/>
</svg>
