<svg width="16" height="14" viewBox="0 0 16 14" fill="none" xmlns="http://www.w3.org/2000/svg">
<path fill-rule="evenodd" clip-rule="evenodd" d="M5.03201 14C11.07 14 14.372 8.61299 14.372 3.94199C14.372 3.78899 14.372 3.63596 14.362 3.48496C15.005 2.98496 15.559 2.36501 16 1.65501C15.402 1.94101 14.766 2.12895 14.115 2.21195C14.8 1.76995 15.313 1.07496 15.558 0.255959C14.914 0.667959 14.209 0.957991 13.474 1.11399C12.23 -0.309008 10.151 -0.378024 8.82901 0.960976C7.97701 1.82398 7.614 3.11097 7.879 4.33897C5.24 4.19597 2.78101 2.853 1.11401 0.644997C0.242014 2.261 0.688005 4.32599 2.13 5.36399C1.608 5.34699 1.09701 5.19597 0.640015 4.92197V4.96696C0.641015 6.64896 1.74199 8.09801 3.27399 8.43101C2.78999 8.57401 2.28299 8.59398 1.79199 8.49198C2.22199 9.93198 3.454 10.919 4.858 10.947C3.696 11.931 2.26001 12.465 0.782013 12.463C0.521013 12.462 0.26 12.446 0 12.412C1.502 13.45 3.24801 14 5.03201 13.997" fill="#222222"/>
</svg>
